TITLE: AutoResolve Timeline

001  001      V     C        00:00:00:00 00:00:04:11 00:00:00:00 00:00:04:11
* FROM CLIP NAME: test_video_5min.mp4#0:4.390000000000001

002  001      V     C        00:00:04:11 00:00:06:05 00:00:04:11 00:00:06:05
* FROM CLIP NAME: test_video_5min.mp4#9.58:11.39

003  001      V     C        00:00:06:05 00:00:13:04 00:00:06:05 00:00:13:04
* FROM CLIP NAME: test_video_5min.mp4#12.15:19.11

004  001      V     C        00:00:13:04 00:00:13:18 00:00:13:04 00:00:13:18
* FROM CLIP NAME: test_video_5min.mp4#19.96:20.419999999999998

005  001      V     C        00:00:13:18 00:00:15:18 00:00:13:18 00:00:15:18
* FROM CLIP NAME: test_video_5min.mp4#21.400000000000002:23.389999999999997

006  001      V     C        00:00:15:18 00:00:19:23 00:00:15:18 00:00:19:23
* FROM CLIP NAME: test_video_5min.mp4#24.23:28.389999999999997

007  001      V     C        00:00:19:23 00:00:20:05 00:00:19:23 00:00:20:05
* FROM CLIP NAME: test_video_5min.mp4#29.42:29.82

008  001      V     C        00:00:20:05 00:00:34:18 00:00:20:05 00:00:34:18
* FROM CLIP NAME: test_video_5min.mp4#30.540000000000003:45.0

009  001      V     C        00:00:34:18 00:00:36:05 00:00:34:18 00:00:36:05
* FROM CLIP NAME: test_video_5min.mp4#46.370000000000005:47.91

010  001      V     C        00:00:36:05 00:00:36:11 00:00:36:05 00:00:36:11
* FROM CLIP NAME: test_video_5min.mp4#48.76:48.96

011  001      V     C        00:00:36:11 00:00:47:02 00:00:36:11 00:00:47:02
* FROM CLIP NAME: test_video_5min.mp4#50.2:60.91

012  001      V     C        00:00:47:02 00:00:58:22 00:00:47:02 00:00:58:22
* FROM CLIP NAME: test_video_5min.mp4#62.09:73.77000000000001

013  001      V     C        00:00:58:22 00:01:01:12 00:00:58:22 00:01:01:12
* FROM CLIP NAME: test_video_5min.mp4#74.8:77.47

014  001      V     C        00:01:01:12 00:01:02:05 00:01:01:12 00:01:02:05
* FROM CLIP NAME: test_video_5min.mp4#78.66999999999999:79.42

015  001      V     C        00:01:02:05 00:01:05:14 00:01:02:05 00:01:05:14
* FROM CLIP NAME: test_video_5min.mp4#80.53:83.85000000000001

016  001      V     C        00:01:05:14 00:01:07:00 00:01:05:14 00:01:07:00
* FROM CLIP NAME: test_video_5min.mp4#84.8:86.33000000000001

017  001      V     C        00:01:07:00 00:01:07:04 00:01:07:00 00:01:07:04
* FROM CLIP NAME: test_video_5min.mp4#87.24:87.37

018  001      V     C        00:01:07:04 00:01:08:25 00:01:07:04 00:01:08:25
* FROM CLIP NAME: test_video_5min.mp4#88.36999999999999:90.07000000000001

019  001      V     C        00:01:08:25 00:01:09:14 00:01:08:25 00:01:09:14
* FROM CLIP NAME: test_video_5min.mp4#90.8:91.44000000000001

020  001      V     C        00:01:09:14 00:01:11:18 00:01:09:14 00:01:11:18
* FROM CLIP NAME: test_video_5min.mp4#92.17999999999999:94.30000000000001

021  001      V     C        00:01:11:18 00:01:24:22 00:01:11:18 00:01:24:22
* FROM CLIP NAME: test_video_5min.mp4#95.11:108.24000000000001

022  001      V     C        00:01:24:22 00:01:27:00 00:01:24:22 00:01:27:00
* FROM CLIP NAME: test_video_5min.mp4#108.94999999999999:111.22

023  001      V     C        00:01:27:00 00:01:27:11 00:01:27:00 00:01:27:11
* FROM CLIP NAME: test_video_5min.mp4#112.1:112.45

024  001      V     C        00:01:27:11 00:01:30:05 00:01:27:11 00:01:30:05
* FROM CLIP NAME: test_video_5min.mp4#113.22999999999999:116.03

025  001      V     C        00:01:30:05 00:01:31:11 00:01:30:05 00:01:31:11
* FROM CLIP NAME: test_video_5min.mp4#116.83999999999999:118.07000000000001

026  001      V     C        00:01:31:11 00:01:36:02 00:01:31:11 00:01:36:02
* FROM CLIP NAME: test_video_5min.mp4#118.80999999999999:123.5

027  001      V     C        00:01:36:02 00:01:41:06 00:01:36:02 00:01:41:06
* FROM CLIP NAME: test_video_5min.mp4#124.36999999999999:129.51000000000002

028  001      V     C        00:01:41:06 00:01:45:07 00:01:41:06 00:01:45:07
* FROM CLIP NAME: test_video_5min.mp4#130.51999999999998:134.54

029  001      V     C        00:01:45:07 00:01:48:26 00:01:45:07 00:01:48:26
* FROM CLIP NAME: test_video_5min.mp4#135.72:139.37

030  001      V     C        00:01:48:26 00:01:49:19 00:01:48:26 00:01:49:19
* FROM CLIP NAME: test_video_5min.mp4#141.04999999999998:141.79

031  001      V     C        00:01:49:19 00:01:51:26 00:01:49:19 00:01:51:26
* FROM CLIP NAME: test_video_5min.mp4#142.7:144.95000000000002

032  001      V     C        00:01:51:26 00:01:56:06 00:01:51:26 00:01:56:06
* FROM CLIP NAME: test_video_5min.mp4#146.1:150.44

033  001      V     C        00:01:56:06 00:02:04:26 00:01:56:06 00:02:04:26
* FROM CLIP NAME: test_video_5min.mp4#151.23999999999998:159.89000000000001

034  001      V     C        00:02:04:26 00:02:08:02 00:02:04:26 00:02:08:02
* FROM CLIP NAME: test_video_5min.mp4#160.88:164.1

035  001      V     C        00:02:08:02 00:02:11:26 00:02:08:02 00:02:11:26
* FROM CLIP NAME: test_video_5min.mp4#164.93:168.70000000000002

036  001      V     C        00:02:11:26 00:02:13:07 00:02:11:26 00:02:13:07
* FROM CLIP NAME: test_video_5min.mp4#169.46:170.84

037  001      V     C        00:02:13:07 00:02:15:27 00:02:13:07 00:02:15:27
* FROM CLIP NAME: test_video_5min.mp4#172.29:174.96

038  001      V     C        00:02:15:27 00:02:19:00 00:02:15:27 00:02:19:00
* FROM CLIP NAME: test_video_5min.mp4#175.98:179.08

039  001      V     C        00:02:19:00 00:02:20:11 00:02:19:00 00:02:20:11
* FROM CLIP NAME: test_video_5min.mp4#180.04:181.4

040  001      V     C        00:02:20:11 00:02:25:05 00:02:20:11 00:02:25:05
* FROM CLIP NAME: test_video_5min.mp4#182.21:187.03

041  001      V     C        00:02:25:05 00:02:28:06 00:02:25:05 00:02:28:06
* FROM CLIP NAME: test_video_5min.mp4#187.92:190.94

042  001      V     C        00:02:28:06 00:02:33:02 00:02:28:06 00:02:33:02
* FROM CLIP NAME: test_video_5min.mp4#191.79:196.64000000000001

043  001      V     C        00:02:33:02 00:02:44:08 00:02:33:02 00:02:44:08
* FROM CLIP NAME: test_video_5min.mp4#197.63:208.83

044  001      V     C        00:02:44:08 00:02:49:23 00:02:44:08 00:02:49:23
* FROM CLIP NAME: test_video_5min.mp4#209.98:215.5

045  001      V     C        00:02:49:23 00:02:53:13 00:02:49:23 00:02:53:13
* FROM CLIP NAME: test_video_5min.mp4#216.23999999999998:219.91

046  001      V     C        00:02:53:13 00:02:54:16 00:02:53:13 00:02:54:16
* FROM CLIP NAME: test_video_5min.mp4#221.13:222.23000000000002

047  001      V     C        00:02:54:16 00:03:01:03 00:02:54:16 00:03:01:03
* FROM CLIP NAME: test_video_5min.mp4#222.93:229.5

048  001      V     C        00:03:01:03 00:03:05:23 00:03:01:03 00:03:05:23
* FROM CLIP NAME: test_video_5min.mp4#230.47:235.13

049  001      V     C        00:03:05:23 00:03:09:17 00:03:05:23 00:03:09:17
* FROM CLIP NAME: test_video_5min.mp4#235.85999999999999:239.64000000000001

050  001      V     C        00:03:09:17 00:03:14:03 00:03:09:17 00:03:14:03
* FROM CLIP NAME: test_video_5min.mp4#240.34:244.9

051  001      V     C        00:03:14:03 00:03:15:12 00:03:14:03 00:03:15:12
* FROM CLIP NAME: test_video_5min.mp4#245.68:246.98000000000002

052  001      V     C        00:03:15:12 00:03:16:28 00:03:15:12 00:03:16:28
* FROM CLIP NAME: test_video_5min.mp4#248.04:249.56

053  001      V     C        00:03:16:28 00:03:19:01 00:03:16:28 00:03:19:01
* FROM CLIP NAME: test_video_5min.mp4#250.29:252.39000000000001

054  001      V     C        00:03:19:01 00:03:19:16 00:03:19:01 00:03:19:16
* FROM CLIP NAME: test_video_5min.mp4#253.25:253.74

055  001      V     C        00:03:19:16 00:03:22:07 00:03:19:16 00:03:22:07
* FROM CLIP NAME: test_video_5min.mp4#254.91:257.63

056  001      V     C        00:03:22:07 00:03:23:11 00:03:22:07 00:03:23:11
* FROM CLIP NAME: test_video_5min.mp4#258.33000000000004:259.46

057  001      V     C        00:03:23:11 00:03:27:15 00:03:23:11 00:03:27:15
* FROM CLIP NAME: test_video_5min.mp4#260.16:264.28

058  001      V     C        00:03:27:15 00:03:30:21 00:03:27:15 00:03:30:21
* FROM CLIP NAME: test_video_5min.mp4#265.15000000000003:268.37

059  001      V     C        00:03:30:21 00:03:32:09 00:03:30:21 00:03:32:09
* FROM CLIP NAME: test_video_5min.mp4#269.24:270.84

060  001      V     C        00:03:32:09 00:03:33:16 00:03:32:09 00:03:33:16
* FROM CLIP NAME: test_video_5min.mp4#271.75:272.96999999999997

061  001      V     C        00:03:33:16 00:03:41:12 00:03:33:16 00:03:41:12
* FROM CLIP NAME: test_video_5min.mp4#273.72:281.59999999999997

062  001      V     C        00:03:41:12 00:03:48:19 00:03:41:12 00:03:48:19
* FROM CLIP NAME: test_video_5min.mp4#282.37:289.59

063  001      V     C        00:03:48:19 00:03:55:17 00:03:48:19 00:03:55:17
* FROM CLIP NAME: test_video_5min.mp4#290.37:297.32

064  001      V     C        00:03:55:17 00:03:55:28 00:03:55:17 00:03:55:28
* FROM CLIP NAME: test_video_5min.mp4#298.37:298.72999999999996

065  001      V     C        00:03:55:28 00:05:35:28 00:03:55:28 00:05:35:28
* FROM CLIP NAME: test_video_5min.mp4#299.52000000000004:end

